ISO-10303-21;
HEADER;
FILE_DESCRIPTION(('FreeCAD Model'),'2;1');
FILE_NAME('Open CASCADE Shape Model','2025-03-22T02:47:57',('FreeCAD'),(
    'FreeCAD'),'Open CASCADE STEP processor 7.7','FreeCAD','Unknown');
FILE_SCHEMA(('AUTOMOTIVE_DESIGN { 1 0 10303 214 1 1 1 1 }'));
ENDSEC;
DATA;
#1 = APPLICATION_PROTOCOL_DEFINITION('international standard',
  'automotive_design',2000,#2);
#2 = APPLICATION_CONTEXT(
  'core data for automotive mechanical design processes');
#3 = SHAPE_DEFINITION_REPRESENTATION(#4,#10);
#4 = PRODUCT_DEFINITION_SHAPE('','',#5);
#5 = PRODUCT_DEFINITION('design','',#6,#9);
#6 = PRODUCT_DEFINITION_FORMATION('','',#7);
#7 = PRODUCT('Open CASCADE STEP translator 7.7 2',
  'Open CASCADE STEP translator 7.7 2','',(#8));
#8 = PRODUCT_CONTEXT('',#2,'mechanical');
#9 = PRODUCT_DEFINITION_CONTEXT('part definition',#2,'design');
#10 = ADVANCED_BREP_SHAPE_REPRESENTATION('',(#11,#15),#639);
#11 = AXIS2_PLACEMENT_3D('',#12,#13,#14);
#12 = CARTESIAN_POINT('',(0.,0.,0.));
#13 = DIRECTION('',(0.,0.,1.));
#14 = DIRECTION('',(1.,0.,-0.));
#15 = MANIFOLD_SOLID_BREP('',#16);
#16 = CLOSED_SHELL('',(#17,#68,#99,#221,#343,#360,#385,#402,#419,#436,
    #453,#476,#493,#510,#527,#544,#561,#578,#596,#621));
#17 = ADVANCED_FACE('',(#18,#52),#63,.T.);
#18 = FACE_BOUND('',#19,.T.);
#19 = EDGE_LOOP('',(#20,#30,#38,#46));
#20 = ORIENTED_EDGE('',*,*,#21,.T.);
#21 = EDGE_CURVE('',#22,#24,#26,.T.);
#22 = VERTEX_POINT('',#23);
#23 = CARTESIAN_POINT('',(-3.5,-22.5,1.5));
#24 = VERTEX_POINT('',#25);
#25 = CARTESIAN_POINT('',(3.5,-22.5,1.5));
#26 = LINE('',#27,#28);
#27 = CARTESIAN_POINT('',(-3.5,-22.5,1.5));
#28 = VECTOR('',#29,1.);
#29 = DIRECTION('',(1.,-1.110223024625E-15,-1.110223024625E-16));
#30 = ORIENTED_EDGE('',*,*,#31,.T.);
#31 = EDGE_CURVE('',#24,#32,#34,.T.);
#32 = VERTEX_POINT('',#33);
#33 = CARTESIAN_POINT('',(3.5,-35.,1.5));
#34 = LINE('',#35,#36);
#35 = CARTESIAN_POINT('',(3.5,-22.5,1.5));
#36 = VECTOR('',#37,1.);
#37 = DIRECTION('',(6.661338147751E-16,-1.,1.665334536938E-15));
#38 = ORIENTED_EDGE('',*,*,#39,.F.);
#39 = EDGE_CURVE('',#40,#32,#42,.T.);
#40 = VERTEX_POINT('',#41);
#41 = CARTESIAN_POINT('',(-3.5,-35.,1.5));
#42 = LINE('',#43,#44);
#43 = CARTESIAN_POINT('',(-3.5,-35.,1.5));
#44 = VECTOR('',#45,1.);
#45 = DIRECTION('',(1.,-1.110223024625E-15,-1.110223024625E-16));
#46 = ORIENTED_EDGE('',*,*,#47,.F.);
#47 = EDGE_CURVE('',#22,#40,#48,.T.);
#48 = LINE('',#49,#50);
#49 = CARTESIAN_POINT('',(-3.5,-22.5,1.5));
#50 = VECTOR('',#51,1.);
#51 = DIRECTION('',(6.661338147751E-16,-1.,1.665334536938E-15));
#52 = FACE_BOUND('',#53,.T.);
#53 = EDGE_LOOP('',(#54));
#54 = ORIENTED_EDGE('',*,*,#55,.F.);
#55 = EDGE_CURVE('',#56,#56,#58,.T.);
#56 = VERTEX_POINT('',#57);
#57 = CARTESIAN_POINT('',(-4.733165431326E-30,-30.,1.5));
#58 = CIRCLE('',#59,1.25);
#59 = AXIS2_PLACEMENT_3D('',#60,#61,#62);
#60 = CARTESIAN_POINT('',(2.13162820728E-14,-28.75,1.5));
#61 = DIRECTION('',(2.22044604925E-16,-6.661338147751E-16,-1.));
#62 = DIRECTION('',(2.22044604925E-16,-1.,6.661338147751E-16));
#63 = PLANE('',#64);
#64 = AXIS2_PLACEMENT_3D('',#65,#66,#67);
#65 = CARTESIAN_POINT('',(-3.5,-22.5,1.5));
#66 = DIRECTION('',(1.221245327088E-15,-1.110223024625E-16,-1.));
#67 = DIRECTION('',(4.440892098501E-16,-1.,1.443289932013E-15));
#68 = ADVANCED_FACE('',(#69),#94,.F.);
#69 = FACE_BOUND('',#70,.F.);
#70 = EDGE_LOOP('',(#71,#72,#80,#88));
#71 = ORIENTED_EDGE('',*,*,#21,.T.);
#72 = ORIENTED_EDGE('',*,*,#73,.T.);
#73 = EDGE_CURVE('',#24,#74,#76,.T.);
#74 = VERTEX_POINT('',#75);
#75 = CARTESIAN_POINT('',(3.5,-22.5,111.5));
#76 = LINE('',#77,#78);
#77 = CARTESIAN_POINT('',(3.5,-22.5,1.5));
#78 = VECTOR('',#79,1.);
#79 = DIRECTION('',(-1.665334536938E-15,-3.330669073875E-16,1.));
#80 = ORIENTED_EDGE('',*,*,#81,.F.);
#81 = EDGE_CURVE('',#82,#74,#84,.T.);
#82 = VERTEX_POINT('',#83);
#83 = CARTESIAN_POINT('',(-3.5,-22.5,111.5));
#84 = LINE('',#85,#86);
#85 = CARTESIAN_POINT('',(-3.5,-22.5,111.5));
#86 = VECTOR('',#87,1.);
#87 = DIRECTION('',(1.,-1.110223024625E-15,-1.110223024625E-16));
#88 = ORIENTED_EDGE('',*,*,#89,.F.);
#89 = EDGE_CURVE('',#22,#82,#90,.T.);
#90 = LINE('',#91,#92);
#91 = CARTESIAN_POINT('',(-3.5,-22.5,1.5));
#92 = VECTOR('',#93,1.);
#93 = DIRECTION('',(-1.665334536938E-15,-3.330669073875E-16,1.));
#94 = PLANE('',#95);
#95 = AXIS2_PLACEMENT_3D('',#96,#97,#98);
#96 = CARTESIAN_POINT('',(-3.5,-22.5,1.5));
#97 = DIRECTION('',(2.22044604925E-16,-1.,1.221245327088E-15));
#98 = DIRECTION('',(-1.443289932013E-15,-1.110223024625E-16,1.));
#99 = ADVANCED_FACE('',(#100,#150,#161,#172,#183,#194,#205),#216,.F.);
#100 = FACE_BOUND('',#101,.F.);
#101 = EDGE_LOOP('',(#102,#103,#104,#112,#120,#128,#136,#144));
#102 = ORIENTED_EDGE('',*,*,#47,.F.);
#103 = ORIENTED_EDGE('',*,*,#89,.T.);
#104 = ORIENTED_EDGE('',*,*,#105,.T.);
#105 = EDGE_CURVE('',#82,#106,#108,.T.);
#106 = VERTEX_POINT('',#107);
#107 = CARTESIAN_POINT('',(-3.5,22.5,111.5));
#108 = LINE('',#109,#110);
#109 = CARTESIAN_POINT('',(-3.5,-22.5,111.5));
#110 = VECTOR('',#111,1.);
#111 = DIRECTION('',(-6.661338147751E-16,1.,-1.665334536938E-15));
#112 = ORIENTED_EDGE('',*,*,#113,.T.);
#113 = EDGE_CURVE('',#106,#114,#116,.T.);
#114 = VERTEX_POINT('',#115);
#115 = CARTESIAN_POINT('',(-3.5,22.5,1.5));
#116 = LINE('',#117,#118);
#117 = CARTESIAN_POINT('',(-3.5,22.5,111.5));
#118 = VECTOR('',#119,1.);
#119 = DIRECTION('',(1.665334536938E-15,3.653643044676E-16,-1.));
#120 = ORIENTED_EDGE('',*,*,#121,.T.);
#121 = EDGE_CURVE('',#114,#122,#124,.T.);
#122 = VERTEX_POINT('',#123);
#123 = CARTESIAN_POINT('',(-3.5,35.,1.5));
#124 = LINE('',#125,#126);
#125 = CARTESIAN_POINT('',(-3.5,22.5,1.5));
#126 = VECTOR('',#127,1.);
#127 = DIRECTION('',(-6.661338147751E-16,1.,-1.665334536938E-15));
#128 = ORIENTED_EDGE('',*,*,#129,.T.);
#129 = EDGE_CURVE('',#122,#130,#132,.T.);
#130 = VERTEX_POINT('',#131);
#131 = CARTESIAN_POINT('',(-3.5,32.5,121.5));
#132 = LINE('',#133,#134);
#133 = CARTESIAN_POINT('',(-3.5,35.,1.5));
#134 = VECTOR('',#135,1.);
#135 = DIRECTION('',(-1.651098476699E-15,-2.082881368184E-02,
    0.999783056728));
#136 = ORIENTED_EDGE('',*,*,#137,.F.);
#137 = EDGE_CURVE('',#138,#130,#140,.T.);
#138 = VERTEX_POINT('',#139);
#139 = CARTESIAN_POINT('',(-3.5,-32.5,121.5));
#140 = LINE('',#141,#142);
#141 = CARTESIAN_POINT('',(-3.5,-32.5,121.5));
#142 = VECTOR('',#143,1.);
#143 = DIRECTION('',(-6.661338147751E-16,1.,-1.665334536938E-15));
#144 = ORIENTED_EDGE('',*,*,#145,.F.);
#145 = EDGE_CURVE('',#40,#138,#146,.T.);
#146 = LINE('',#147,#148);
#147 = CARTESIAN_POINT('',(-3.5,-35.,1.5));
#148 = VECTOR('',#149,1.);
#149 = DIRECTION('',(-1.67884803093E-15,2.082881368184E-02,
    0.999783056728));
#150 = FACE_BOUND('',#151,.F.);
#151 = EDGE_LOOP('',(#152));
#152 = ORIENTED_EDGE('',*,*,#153,.T.);
#153 = EDGE_CURVE('',#154,#154,#156,.T.);
#154 = VERTEX_POINT('',#155);
#155 = CARTESIAN_POINT('',(-3.5,29.05,34.375));
#156 = CIRCLE('',#157,1.);
#157 = AXIS2_PLACEMENT_3D('',#158,#159,#160);
#158 = CARTESIAN_POINT('',(-3.5,28.05,34.375));
#159 = DIRECTION('',(-1.,2.22044604925E-16,-1.110223024625E-16));
#160 = DIRECTION('',(2.22044604925E-16,1.,-1.110223024625E-16));
#161 = FACE_BOUND('',#162,.F.);
#162 = EDGE_LOOP('',(#163));
#163 = ORIENTED_EDGE('',*,*,#164,.T.);
#164 = EDGE_CURVE('',#165,#165,#167,.T.);
#165 = VERTEX_POINT('',#166);
#166 = CARTESIAN_POINT('',(-3.5,29.05,74.875));
#167 = CIRCLE('',#168,1.);
#168 = AXIS2_PLACEMENT_3D('',#169,#170,#171);
#169 = CARTESIAN_POINT('',(-3.5,28.05,74.875));
#170 = DIRECTION('',(-1.,2.22044604925E-16,-1.110223024625E-16));
#171 = DIRECTION('',(2.22044604925E-16,1.,-1.110223024625E-16));
#172 = FACE_BOUND('',#173,.F.);
#173 = EDGE_LOOP('',(#174));
#174 = ORIENTED_EDGE('',*,*,#175,.T.);
#175 = EDGE_CURVE('',#176,#176,#178,.T.);
#176 = VERTEX_POINT('',#177);
#177 = CARTESIAN_POINT('',(-3.5,29.05,115.375));
#178 = CIRCLE('',#179,1.);
#179 = AXIS2_PLACEMENT_3D('',#180,#181,#182);
#180 = CARTESIAN_POINT('',(-3.5,28.05,115.375));
#181 = DIRECTION('',(-1.,2.22044604925E-16,-1.110223024625E-16));
#182 = DIRECTION('',(2.22044604925E-16,1.,-1.110223024625E-16));
#183 = FACE_BOUND('',#184,.F.);
#184 = EDGE_LOOP('',(#185));
#185 = ORIENTED_EDGE('',*,*,#186,.T.);
#186 = EDGE_CURVE('',#187,#187,#189,.T.);
#187 = VERTEX_POINT('',#188);
#188 = CARTESIAN_POINT('',(-3.5,-27.05,14.125));
#189 = CIRCLE('',#190,1.);
#190 = AXIS2_PLACEMENT_3D('',#191,#192,#193);
#191 = CARTESIAN_POINT('',(-3.5,-28.05,14.125));
#192 = DIRECTION('',(-1.,2.22044604925E-16,-1.110223024625E-16));
#193 = DIRECTION('',(2.22044604925E-16,1.,-1.110223024625E-16));
#194 = FACE_BOUND('',#195,.F.);
#195 = EDGE_LOOP('',(#196));
#196 = ORIENTED_EDGE('',*,*,#197,.T.);
#197 = EDGE_CURVE('',#198,#198,#200,.T.);
#198 = VERTEX_POINT('',#199);
#199 = CARTESIAN_POINT('',(-3.5,-27.05,54.625));
#200 = CIRCLE('',#201,1.);
#201 = AXIS2_PLACEMENT_3D('',#202,#203,#204);
#202 = CARTESIAN_POINT('',(-3.5,-28.05,54.625));
#203 = DIRECTION('',(-1.,2.22044604925E-16,-1.110223024625E-16));
#204 = DIRECTION('',(2.22044604925E-16,1.,-1.110223024625E-16));
#205 = FACE_BOUND('',#206,.F.);
#206 = EDGE_LOOP('',(#207));
#207 = ORIENTED_EDGE('',*,*,#208,.T.);
#208 = EDGE_CURVE('',#209,#209,#211,.T.);
#209 = VERTEX_POINT('',#210);
#210 = CARTESIAN_POINT('',(-3.5,-27.05,95.125));
#211 = CIRCLE('',#212,1.);
#212 = AXIS2_PLACEMENT_3D('',#213,#214,#215);
#213 = CARTESIAN_POINT('',(-3.5,-28.05,95.125));
#214 = DIRECTION('',(-1.,2.22044604925E-16,-1.110223024625E-16));
#215 = DIRECTION('',(2.22044604925E-16,1.,-1.110223024625E-16));
#216 = PLANE('',#217);
#217 = AXIS2_PLACEMENT_3D('',#218,#219,#220);
#218 = CARTESIAN_POINT('',(-3.5,-2.04037924673E-14,67.465864389252));
#219 = DIRECTION('',(1.,-1.33226762955E-15,-3.330669073875E-16));
#220 = DIRECTION('',(-1.665334536938E-15,-3.330669073875E-16,1.));
#221 = ADVANCED_FACE('',(#222,#272,#283,#294,#305,#316,#327),#338,.T.);
#222 = FACE_BOUND('',#223,.T.);
#223 = EDGE_LOOP('',(#224,#225,#226,#234,#242,#250,#258,#266));
#224 = ORIENTED_EDGE('',*,*,#31,.F.);
#225 = ORIENTED_EDGE('',*,*,#73,.T.);
#226 = ORIENTED_EDGE('',*,*,#227,.T.);
#227 = EDGE_CURVE('',#74,#228,#230,.T.);
#228 = VERTEX_POINT('',#229);
#229 = CARTESIAN_POINT('',(3.5,22.5,111.5));
#230 = LINE('',#231,#232);
#231 = CARTESIAN_POINT('',(3.5,-22.5,111.5));
#232 = VECTOR('',#233,1.);
#233 = DIRECTION('',(-6.661338147751E-16,1.,-1.665334536938E-15));
#234 = ORIENTED_EDGE('',*,*,#235,.T.);
#235 = EDGE_CURVE('',#228,#236,#238,.T.);
#236 = VERTEX_POINT('',#237);
#237 = CARTESIAN_POINT('',(3.5,22.5,1.5));
#238 = LINE('',#239,#240);
#239 = CARTESIAN_POINT('',(3.5,22.5,111.5));
#240 = VECTOR('',#241,1.);
#241 = DIRECTION('',(1.665334536938E-15,3.653643044676E-16,-1.));
#242 = ORIENTED_EDGE('',*,*,#243,.T.);
#243 = EDGE_CURVE('',#236,#244,#246,.T.);
#244 = VERTEX_POINT('',#245);
#245 = CARTESIAN_POINT('',(3.5,35.,1.5));
#246 = LINE('',#247,#248);
#247 = CARTESIAN_POINT('',(3.5,22.5,1.5));
#248 = VECTOR('',#249,1.);
#249 = DIRECTION('',(-6.661338147751E-16,1.,-1.665334536938E-15));
#250 = ORIENTED_EDGE('',*,*,#251,.T.);
#251 = EDGE_CURVE('',#244,#252,#254,.T.);
#252 = VERTEX_POINT('',#253);
#253 = CARTESIAN_POINT('',(3.5,32.5,121.5));
#254 = LINE('',#255,#256);
#255 = CARTESIAN_POINT('',(3.5,35.,1.5));
#256 = VECTOR('',#257,1.);
#257 = DIRECTION('',(-1.651098476699E-15,-2.082881368184E-02,
    0.999783056728));
#258 = ORIENTED_EDGE('',*,*,#259,.F.);
#259 = EDGE_CURVE('',#260,#252,#262,.T.);
#260 = VERTEX_POINT('',#261);
#261 = CARTESIAN_POINT('',(3.5,-32.5,121.5));
#262 = LINE('',#263,#264);
#263 = CARTESIAN_POINT('',(3.5,-32.5,121.5));
#264 = VECTOR('',#265,1.);
#265 = DIRECTION('',(-6.661338147751E-16,1.,-1.665334536938E-15));
#266 = ORIENTED_EDGE('',*,*,#267,.F.);
#267 = EDGE_CURVE('',#32,#260,#268,.T.);
#268 = LINE('',#269,#270);
#269 = CARTESIAN_POINT('',(3.5,-35.,1.5));
#270 = VECTOR('',#271,1.);
#271 = DIRECTION('',(-1.67884803093E-15,2.082881368184E-02,
    0.999783056728));
#272 = FACE_BOUND('',#273,.T.);
#273 = EDGE_LOOP('',(#274));
#274 = ORIENTED_EDGE('',*,*,#275,.F.);
#275 = EDGE_CURVE('',#276,#276,#278,.T.);
#276 = VERTEX_POINT('',#277);
#277 = CARTESIAN_POINT('',(3.5,29.05,34.375));
#278 = CIRCLE('',#279,1.);
#279 = AXIS2_PLACEMENT_3D('',#280,#281,#282);
#280 = CARTESIAN_POINT('',(3.5,28.05,34.375));
#281 = DIRECTION('',(1.,-2.22044604925E-16,1.110223024625E-16));
#282 = DIRECTION('',(2.22044604925E-16,1.,-1.110223024625E-16));
#283 = FACE_BOUND('',#284,.T.);
#284 = EDGE_LOOP('',(#285));
#285 = ORIENTED_EDGE('',*,*,#286,.F.);
#286 = EDGE_CURVE('',#287,#287,#289,.T.);
#287 = VERTEX_POINT('',#288);
#288 = CARTESIAN_POINT('',(3.5,29.05,74.875));
#289 = CIRCLE('',#290,1.);
#290 = AXIS2_PLACEMENT_3D('',#291,#292,#293);
#291 = CARTESIAN_POINT('',(3.5,28.05,74.875));
#292 = DIRECTION('',(1.,-2.22044604925E-16,1.110223024625E-16));
#293 = DIRECTION('',(2.22044604925E-16,1.,-1.110223024625E-16));
#294 = FACE_BOUND('',#295,.T.);
#295 = EDGE_LOOP('',(#296));
#296 = ORIENTED_EDGE('',*,*,#297,.F.);
#297 = EDGE_CURVE('',#298,#298,#300,.T.);
#298 = VERTEX_POINT('',#299);
#299 = CARTESIAN_POINT('',(3.5,29.05,115.375));
#300 = CIRCLE('',#301,1.);
#301 = AXIS2_PLACEMENT_3D('',#302,#303,#304);
#302 = CARTESIAN_POINT('',(3.5,28.05,115.375));
#303 = DIRECTION('',(1.,-2.22044604925E-16,1.110223024625E-16));
#304 = DIRECTION('',(2.22044604925E-16,1.,-1.110223024625E-16));
#305 = FACE_BOUND('',#306,.T.);
#306 = EDGE_LOOP('',(#307));
#307 = ORIENTED_EDGE('',*,*,#308,.F.);
#308 = EDGE_CURVE('',#309,#309,#311,.T.);
#309 = VERTEX_POINT('',#310);
#310 = CARTESIAN_POINT('',(3.5,-27.05,14.125));
#311 = CIRCLE('',#312,1.);
#312 = AXIS2_PLACEMENT_3D('',#313,#314,#315);
#313 = CARTESIAN_POINT('',(3.5,-28.05,14.125));
#314 = DIRECTION('',(1.,-2.22044604925E-16,1.110223024625E-16));
#315 = DIRECTION('',(2.22044604925E-16,1.,-1.110223024625E-16));
#316 = FACE_BOUND('',#317,.T.);
#317 = EDGE_LOOP('',(#318));
#318 = ORIENTED_EDGE('',*,*,#319,.F.);
#319 = EDGE_CURVE('',#320,#320,#322,.T.);
#320 = VERTEX_POINT('',#321);
#321 = CARTESIAN_POINT('',(3.5,-27.05,54.625));
#322 = CIRCLE('',#323,1.);
#323 = AXIS2_PLACEMENT_3D('',#324,#325,#326);
#324 = CARTESIAN_POINT('',(3.5,-28.05,54.625));
#325 = DIRECTION('',(1.,-2.22044604925E-16,1.110223024625E-16));
#326 = DIRECTION('',(2.22044604925E-16,1.,-1.110223024625E-16));
#327 = FACE_BOUND('',#328,.T.);
#328 = EDGE_LOOP('',(#329));
#329 = ORIENTED_EDGE('',*,*,#330,.F.);
#330 = EDGE_CURVE('',#331,#331,#333,.T.);
#331 = VERTEX_POINT('',#332);
#332 = CARTESIAN_POINT('',(3.5,-27.05,95.125));
#333 = CIRCLE('',#334,1.);
#334 = AXIS2_PLACEMENT_3D('',#335,#336,#337);
#335 = CARTESIAN_POINT('',(3.5,-28.05,95.125));
#336 = DIRECTION('',(1.,-2.22044604925E-16,1.110223024625E-16));
#337 = DIRECTION('',(2.22044604925E-16,1.,-1.110223024625E-16));
#338 = PLANE('',#339);
#339 = AXIS2_PLACEMENT_3D('',#340,#341,#342);
#340 = CARTESIAN_POINT('',(3.5,-2.506672917072E-14,67.465864389252));
#341 = DIRECTION('',(1.,-1.33226762955E-15,-3.330669073875E-16));
#342 = DIRECTION('',(-1.665334536938E-15,-3.330669073875E-16,1.));
#343 = ADVANCED_FACE('',(#344),#355,.T.);
#344 = FACE_BOUND('',#345,.T.);
#345 = EDGE_LOOP('',(#346,#347,#348,#354));
#346 = ORIENTED_EDGE('',*,*,#39,.T.);
#347 = ORIENTED_EDGE('',*,*,#267,.T.);
#348 = ORIENTED_EDGE('',*,*,#349,.F.);
#349 = EDGE_CURVE('',#138,#260,#350,.T.);
#350 = LINE('',#351,#352);
#351 = CARTESIAN_POINT('',(-3.5,-32.5,121.5));
#352 = VECTOR('',#353,1.);
#353 = DIRECTION('',(1.,-1.110223024625E-15,-1.110223024625E-16));
#354 = ORIENTED_EDGE('',*,*,#145,.F.);
#355 = PLANE('',#356);
#356 = AXIS2_PLACEMENT_3D('',#357,#358,#359);
#357 = CARTESIAN_POINT('',(-3.5,-35.,1.5));
#358 = DIRECTION('',(1.965593424642E-16,-0.999783056728,
    2.082881368184E-02));
#359 = DIRECTION('',(-1.452226671383E-15,2.082881368184E-02,
    0.999783056728));
#360 = ADVANCED_FACE('',(#361),#380,.F.);
#361 = FACE_BOUND('',#362,.T.);
#362 = EDGE_LOOP('',(#363,#371,#372,#373));
#363 = ORIENTED_EDGE('',*,*,#364,.F.);
#364 = EDGE_CURVE('',#56,#365,#367,.T.);
#365 = VERTEX_POINT('',#366);
#366 = CARTESIAN_POINT('',(-6.661338147751E-15,-30.,11.5));
#367 = LINE('',#368,#369);
#368 = CARTESIAN_POINT('',(2.13162820728E-14,-30.,1.5));
#369 = VECTOR('',#370,1.);
#370 = DIRECTION('',(-8.881784197001E-16,6.661338147751E-17,1.));
#371 = ORIENTED_EDGE('',*,*,#55,.T.);
#372 = ORIENTED_EDGE('',*,*,#364,.T.);
#373 = ORIENTED_EDGE('',*,*,#374,.F.);
#374 = EDGE_CURVE('',#365,#365,#375,.T.);
#375 = CIRCLE('',#376,1.25);
#376 = AXIS2_PLACEMENT_3D('',#377,#378,#379);
#377 = CARTESIAN_POINT('',(1.06581410364E-14,-28.75,11.5));
#378 = DIRECTION('',(2.22044604925E-16,-6.661338147751E-16,-1.));
#379 = DIRECTION('',(2.22044604925E-16,-1.,6.661338147751E-16));
#380 = CYLINDRICAL_SURFACE('',#381,1.25);
#381 = AXIS2_PLACEMENT_3D('',#382,#383,#384);
#382 = CARTESIAN_POINT('',(2.13162820728E-14,-28.75,1.5));
#383 = DIRECTION('',(-8.881784197001E-16,2.958228394579E-31,1.));
#384 = DIRECTION('',(2.22044604925E-16,-1.,6.661338147751E-16));
#385 = ADVANCED_FACE('',(#386),#397,.F.);
#386 = FACE_BOUND('',#387,.F.);
#387 = EDGE_LOOP('',(#388,#389,#390,#396));
#388 = ORIENTED_EDGE('',*,*,#81,.T.);
#389 = ORIENTED_EDGE('',*,*,#227,.T.);
#390 = ORIENTED_EDGE('',*,*,#391,.F.);
#391 = EDGE_CURVE('',#106,#228,#392,.T.);
#392 = LINE('',#393,#394);
#393 = CARTESIAN_POINT('',(-3.5,22.5,111.5));
#394 = VECTOR('',#395,1.);
#395 = DIRECTION('',(1.,-1.110223024625E-15,-1.110223024625E-16));
#396 = ORIENTED_EDGE('',*,*,#105,.F.);
#397 = PLANE('',#398);
#398 = AXIS2_PLACEMENT_3D('',#399,#400,#401);
#399 = CARTESIAN_POINT('',(-3.5,-22.5,111.5));
#400 = DIRECTION('',(-1.221245327088E-15,1.110223024625E-16,1.));
#401 = DIRECTION('',(-4.440892098501E-16,1.,-1.443289932013E-15));
#402 = ADVANCED_FACE('',(#403),#414,.T.);
#403 = FACE_BOUND('',#404,.T.);
#404 = EDGE_LOOP('',(#405,#406,#407,#413));
#405 = ORIENTED_EDGE('',*,*,#349,.T.);
#406 = ORIENTED_EDGE('',*,*,#259,.T.);
#407 = ORIENTED_EDGE('',*,*,#408,.F.);
#408 = EDGE_CURVE('',#130,#252,#409,.T.);
#409 = LINE('',#410,#411);
#410 = CARTESIAN_POINT('',(-3.5,32.5,121.5));
#411 = VECTOR('',#412,1.);
#412 = DIRECTION('',(1.,-1.110223024625E-15,-1.110223024625E-16));
#413 = ORIENTED_EDGE('',*,*,#137,.F.);
#414 = PLANE('',#415);
#415 = AXIS2_PLACEMENT_3D('',#416,#417,#418);
#416 = CARTESIAN_POINT('',(-3.5,-32.5,121.5));
#417 = DIRECTION('',(-1.221245327088E-15,1.110223024625E-16,1.));
#418 = DIRECTION('',(-4.440892098501E-16,1.,-1.443289932013E-15));
#419 = ADVANCED_FACE('',(#420),#431,.F.);
#420 = FACE_BOUND('',#421,.F.);
#421 = EDGE_LOOP('',(#422,#423,#424,#430));
#422 = ORIENTED_EDGE('',*,*,#391,.T.);
#423 = ORIENTED_EDGE('',*,*,#235,.T.);
#424 = ORIENTED_EDGE('',*,*,#425,.F.);
#425 = EDGE_CURVE('',#114,#236,#426,.T.);
#426 = LINE('',#427,#428);
#427 = CARTESIAN_POINT('',(-3.5,22.5,1.5));
#428 = VECTOR('',#429,1.);
#429 = DIRECTION('',(1.,-1.110223024625E-15,-1.110223024625E-16));
#430 = ORIENTED_EDGE('',*,*,#113,.F.);
#431 = PLANE('',#432);
#432 = AXIS2_PLACEMENT_3D('',#433,#434,#435);
#433 = CARTESIAN_POINT('',(-3.5,22.5,111.5));
#434 = DIRECTION('',(-2.22044604925E-16,1.,-1.188947930008E-15));
#435 = DIRECTION('',(1.443289932013E-15,1.433196995425E-16,-1.));
#436 = ADVANCED_FACE('',(#437),#448,.F.);
#437 = FACE_BOUND('',#438,.F.);
#438 = EDGE_LOOP('',(#439,#445,#446,#447));
#439 = ORIENTED_EDGE('',*,*,#440,.T.);
#440 = EDGE_CURVE('',#122,#244,#441,.T.);
#441 = LINE('',#442,#443);
#442 = CARTESIAN_POINT('',(-3.5,35.,1.5));
#443 = VECTOR('',#444,1.);
#444 = DIRECTION('',(1.,-1.110223024625E-15,-1.110223024625E-16));
#445 = ORIENTED_EDGE('',*,*,#251,.T.);
#446 = ORIENTED_EDGE('',*,*,#408,.F.);
#447 = ORIENTED_EDGE('',*,*,#129,.F.);
#448 = PLANE('',#449);
#449 = AXIS2_PLACEMENT_3D('',#450,#451,#452);
#450 = CARTESIAN_POINT('',(-3.5,35.,1.5));
#451 = DIRECTION('',(2.474335252197E-16,-0.999783056728,
    -2.082881368183E-02));
#452 = DIRECTION('',(-1.433726968562E-15,-2.082881368184E-02,
    0.999783056728));
#453 = ADVANCED_FACE('',(#454,#460),#471,.F.);
#454 = FACE_BOUND('',#455,.F.);
#455 = EDGE_LOOP('',(#456,#457,#458,#459));
#456 = ORIENTED_EDGE('',*,*,#425,.T.);
#457 = ORIENTED_EDGE('',*,*,#243,.T.);
#458 = ORIENTED_EDGE('',*,*,#440,.F.);
#459 = ORIENTED_EDGE('',*,*,#121,.F.);
#460 = FACE_BOUND('',#461,.F.);
#461 = EDGE_LOOP('',(#462));
#462 = ORIENTED_EDGE('',*,*,#463,.T.);
#463 = EDGE_CURVE('',#464,#464,#466,.T.);
#464 = VERTEX_POINT('',#465);
#465 = CARTESIAN_POINT('',(6.383782391595E-15,27.5,1.5));
#466 = CIRCLE('',#467,1.25);
#467 = AXIS2_PLACEMENT_3D('',#468,#469,#470);
#468 = CARTESIAN_POINT('',(-1.42108547152E-14,28.75,1.5));
#469 = DIRECTION('',(2.22044604925E-16,-6.661338147751E-16,-1.));
#470 = DIRECTION('',(2.22044604925E-16,-1.,6.661338147751E-16));
#471 = PLANE('',#472);
#472 = AXIS2_PLACEMENT_3D('',#473,#474,#475);
#473 = CARTESIAN_POINT('',(-3.5,22.5,1.5));
#474 = DIRECTION('',(-1.221245327088E-15,1.110223024625E-16,1.));
#475 = DIRECTION('',(-4.440892098501E-16,1.,-1.443289932013E-15));
#476 = ADVANCED_FACE('',(#477),#488,.F.);
#477 = FACE_BOUND('',#478,.T.);
#478 = EDGE_LOOP('',(#479,#485,#486,#487));
#479 = ORIENTED_EDGE('',*,*,#480,.F.);
#480 = EDGE_CURVE('',#276,#154,#481,.T.);
#481 = LINE('',#482,#483);
#482 = CARTESIAN_POINT('',(3.5,29.05,34.375));
#483 = VECTOR('',#484,1.);
#484 = DIRECTION('',(-1.,1.59872115546E-16,-1.110223024625E-16));
#485 = ORIENTED_EDGE('',*,*,#275,.T.);
#486 = ORIENTED_EDGE('',*,*,#480,.T.);
#487 = ORIENTED_EDGE('',*,*,#153,.T.);
#488 = CYLINDRICAL_SURFACE('',#489,1.);
#489 = AXIS2_PLACEMENT_3D('',#490,#491,#492);
#490 = CARTESIAN_POINT('',(3.5,28.05,34.375));
#491 = DIRECTION('',(-1.,2.22044604925E-16,-1.110223024625E-16));
#492 = DIRECTION('',(2.22044604925E-16,1.,-1.110223024625E-16));
#493 = ADVANCED_FACE('',(#494),#505,.F.);
#494 = FACE_BOUND('',#495,.T.);
#495 = EDGE_LOOP('',(#496,#502,#503,#504));
#496 = ORIENTED_EDGE('',*,*,#497,.F.);
#497 = EDGE_CURVE('',#287,#165,#498,.T.);
#498 = LINE('',#499,#500);
#499 = CARTESIAN_POINT('',(3.5,29.05,74.875));
#500 = VECTOR('',#501,1.);
#501 = DIRECTION('',(-1.,1.59872115546E-16,-1.110223024625E-16));
#502 = ORIENTED_EDGE('',*,*,#286,.T.);
#503 = ORIENTED_EDGE('',*,*,#497,.T.);
#504 = ORIENTED_EDGE('',*,*,#164,.T.);
#505 = CYLINDRICAL_SURFACE('',#506,1.);
#506 = AXIS2_PLACEMENT_3D('',#507,#508,#509);
#507 = CARTESIAN_POINT('',(3.5,28.05,74.875));
#508 = DIRECTION('',(-1.,2.22044604925E-16,-1.110223024625E-16));
#509 = DIRECTION('',(2.22044604925E-16,1.,-1.110223024625E-16));
#510 = ADVANCED_FACE('',(#511),#522,.F.);
#511 = FACE_BOUND('',#512,.T.);
#512 = EDGE_LOOP('',(#513,#519,#520,#521));
#513 = ORIENTED_EDGE('',*,*,#514,.F.);
#514 = EDGE_CURVE('',#298,#176,#515,.T.);
#515 = LINE('',#516,#517);
#516 = CARTESIAN_POINT('',(3.5,29.05,115.375));
#517 = VECTOR('',#518,1.);
#518 = DIRECTION('',(-1.,1.59872115546E-16,-1.110223024625E-16));
#519 = ORIENTED_EDGE('',*,*,#297,.T.);
#520 = ORIENTED_EDGE('',*,*,#514,.T.);
#521 = ORIENTED_EDGE('',*,*,#175,.T.);
#522 = CYLINDRICAL_SURFACE('',#523,1.);
#523 = AXIS2_PLACEMENT_3D('',#524,#525,#526);
#524 = CARTESIAN_POINT('',(3.5,28.05,115.375));
#525 = DIRECTION('',(-1.,2.22044604925E-16,-1.110223024625E-16));
#526 = DIRECTION('',(2.22044604925E-16,1.,-1.110223024625E-16));
#527 = ADVANCED_FACE('',(#528),#539,.F.);
#528 = FACE_BOUND('',#529,.T.);
#529 = EDGE_LOOP('',(#530,#536,#537,#538));
#530 = ORIENTED_EDGE('',*,*,#531,.F.);
#531 = EDGE_CURVE('',#309,#187,#532,.T.);
#532 = LINE('',#533,#534);
#533 = CARTESIAN_POINT('',(3.5,-27.05,14.125));
#534 = VECTOR('',#535,1.);
#535 = DIRECTION('',(-1.,1.59872115546E-16,-1.110223024625E-16));
#536 = ORIENTED_EDGE('',*,*,#308,.T.);
#537 = ORIENTED_EDGE('',*,*,#531,.T.);
#538 = ORIENTED_EDGE('',*,*,#186,.T.);
#539 = CYLINDRICAL_SURFACE('',#540,1.);
#540 = AXIS2_PLACEMENT_3D('',#541,#542,#543);
#541 = CARTESIAN_POINT('',(3.5,-28.05,14.125));
#542 = DIRECTION('',(-1.,2.22044604925E-16,-1.110223024625E-16));
#543 = DIRECTION('',(2.22044604925E-16,1.,-1.110223024625E-16));
#544 = ADVANCED_FACE('',(#545),#556,.F.);
#545 = FACE_BOUND('',#546,.T.);
#546 = EDGE_LOOP('',(#547,#553,#554,#555));
#547 = ORIENTED_EDGE('',*,*,#548,.F.);
#548 = EDGE_CURVE('',#320,#198,#549,.T.);
#549 = LINE('',#550,#551);
#550 = CARTESIAN_POINT('',(3.5,-27.05,54.625));
#551 = VECTOR('',#552,1.);
#552 = DIRECTION('',(-1.,1.59872115546E-16,-1.110223024625E-16));
#553 = ORIENTED_EDGE('',*,*,#319,.T.);
#554 = ORIENTED_EDGE('',*,*,#548,.T.);
#555 = ORIENTED_EDGE('',*,*,#197,.T.);
#556 = CYLINDRICAL_SURFACE('',#557,1.);
#557 = AXIS2_PLACEMENT_3D('',#558,#559,#560);
#558 = CARTESIAN_POINT('',(3.5,-28.05,54.625));
#559 = DIRECTION('',(-1.,2.22044604925E-16,-1.110223024625E-16));
#560 = DIRECTION('',(2.22044604925E-16,1.,-1.110223024625E-16));
#561 = ADVANCED_FACE('',(#562),#573,.F.);
#562 = FACE_BOUND('',#563,.T.);
#563 = EDGE_LOOP('',(#564,#570,#571,#572));
#564 = ORIENTED_EDGE('',*,*,#565,.F.);
#565 = EDGE_CURVE('',#331,#209,#566,.T.);
#566 = LINE('',#567,#568);
#567 = CARTESIAN_POINT('',(3.5,-27.05,95.125));
#568 = VECTOR('',#569,1.);
#569 = DIRECTION('',(-1.,1.59872115546E-16,-1.110223024625E-16));
#570 = ORIENTED_EDGE('',*,*,#330,.T.);
#571 = ORIENTED_EDGE('',*,*,#565,.T.);
#572 = ORIENTED_EDGE('',*,*,#208,.T.);
#573 = CYLINDRICAL_SURFACE('',#574,1.);
#574 = AXIS2_PLACEMENT_3D('',#575,#576,#577);
#575 = CARTESIAN_POINT('',(3.5,-28.05,95.125));
#576 = DIRECTION('',(-1.,2.22044604925E-16,-1.110223024625E-16));
#577 = DIRECTION('',(2.22044604925E-16,1.,-1.110223024625E-16));
#578 = ADVANCED_FACE('',(#579),#591,.F.);
#579 = FACE_BOUND('',#580,.T.);
#580 = EDGE_LOOP('',(#581,#582,#590));
#581 = ORIENTED_EDGE('',*,*,#374,.T.);
#582 = ORIENTED_EDGE('',*,*,#583,.T.);
#583 = EDGE_CURVE('',#365,#584,#586,.T.);
#584 = VERTEX_POINT('',#585);
#585 = CARTESIAN_POINT('',(-7.161655118127E-15,-28.75,12.251075773784));
#586 = LINE('',#587,#588);
#587 = CARTESIAN_POINT('',(1.06581410364E-14,-30.,11.5));
#588 = VECTOR('',#589,1.);
#589 = DIRECTION('',(-6.477750780981E-16,0.857167300702,0.51503807491));
#590 = ORIENTED_EDGE('',*,*,#583,.F.);
#591 = CONICAL_SURFACE('',#592,1.25,1.029744258677);
#592 = AXIS2_PLACEMENT_3D('',#593,#594,#595);
#593 = CARTESIAN_POINT('',(1.06581410364E-14,-28.75,11.5));
#594 = DIRECTION('',(8.881784197001E-16,-2.958228394579E-31,-1.));
#595 = DIRECTION('',(2.22044604925E-16,-1.,6.661338147751E-16));
#596 = ADVANCED_FACE('',(#597),#616,.F.);
#597 = FACE_BOUND('',#598,.T.);
#598 = EDGE_LOOP('',(#599,#607,#608,#609));
#599 = ORIENTED_EDGE('',*,*,#600,.F.);
#600 = EDGE_CURVE('',#464,#601,#603,.T.);
#601 = VERTEX_POINT('',#602);
#602 = CARTESIAN_POINT('',(-2.775557561563E-16,27.5,11.5));
#603 = LINE('',#604,#605);
#604 = CARTESIAN_POINT('',(-1.42108547152E-14,27.5,1.5));
#605 = VECTOR('',#606,1.);
#606 = DIRECTION('',(-8.881784197001E-16,6.661338147751E-17,1.));
#607 = ORIENTED_EDGE('',*,*,#463,.T.);
#608 = ORIENTED_EDGE('',*,*,#600,.T.);
#609 = ORIENTED_EDGE('',*,*,#610,.F.);
#610 = EDGE_CURVE('',#601,#601,#611,.T.);
#611 = CIRCLE('',#612,1.25);
#612 = AXIS2_PLACEMENT_3D('',#613,#614,#615);
#613 = CARTESIAN_POINT('',(-2.48689957516E-14,28.75,11.5));
#614 = DIRECTION('',(2.22044604925E-16,-6.661338147751E-16,-1.));
#615 = DIRECTION('',(2.22044604925E-16,-1.,6.661338147751E-16));
#616 = CYLINDRICAL_SURFACE('',#617,1.25);
#617 = AXIS2_PLACEMENT_3D('',#618,#619,#620);
#618 = CARTESIAN_POINT('',(-1.42108547152E-14,28.75,1.5));
#619 = DIRECTION('',(-8.881784197001E-16,2.958228394579E-31,1.));
#620 = DIRECTION('',(2.22044604925E-16,-1.,6.661338147751E-16));
#621 = ADVANCED_FACE('',(#622),#634,.F.);
#622 = FACE_BOUND('',#623,.T.);
#623 = EDGE_LOOP('',(#624,#625,#633));
#624 = ORIENTED_EDGE('',*,*,#610,.T.);
#625 = ORIENTED_EDGE('',*,*,#626,.T.);
#626 = EDGE_CURVE('',#601,#627,#629,.T.);
#627 = VERTEX_POINT('',#628);
#628 = CARTESIAN_POINT('',(-7.778727265325E-16,28.75,12.251075773784));
#629 = LINE('',#630,#631);
#630 = CARTESIAN_POINT('',(-2.48689957516E-14,27.5,11.5));
#631 = VECTOR('',#632,1.);
#632 = DIRECTION('',(-6.477750780981E-16,0.857167300702,0.51503807491));
#633 = ORIENTED_EDGE('',*,*,#626,.F.);
#634 = CONICAL_SURFACE('',#635,1.25,1.029744258677);
#635 = AXIS2_PLACEMENT_3D('',#636,#637,#638);
#636 = CARTESIAN_POINT('',(-2.48689957516E-14,28.75,11.5));
#637 = DIRECTION('',(8.881784197001E-16,-2.958228394579E-31,-1.));
#638 = DIRECTION('',(2.22044604925E-16,-1.,6.661338147751E-16));
#639 = ( GEOMETRIC_REPRESENTATION_CONTEXT(3) 
GLOBAL_UNCERTAINTY_ASSIGNED_CONTEXT((#643)) GLOBAL_UNIT_ASSIGNED_CONTEXT
((#640,#641,#642)) REPRESENTATION_CONTEXT('Context #1',
  '3D Context with UNIT and UNCERTAINTY') );
#640 = ( LENGTH_UNIT() NAMED_UNIT(*) SI_UNIT(.MILLI.,.METRE.) );
#641 = ( NAMED_UNIT(*) PLANE_ANGLE_UNIT() SI_UNIT($,.RADIAN.) );
#642 = ( NAMED_UNIT(*) SI_UNIT($,.STERADIAN.) SOLID_ANGLE_UNIT() );
#643 = UNCERTAINTY_MEASURE_WITH_UNIT(LENGTH_MEASURE(1.E-07),#640,
  'distance_accuracy_value','confusion accuracy');
#644 = PRODUCT_RELATED_PRODUCT_CATEGORY('part',$,(#7));
ENDSEC;
END-ISO-10303-21;
